# xmcd
#
# Track frame offsets: 
#        150
#        11769
#        20769
#        32943
#        47256
#        60005
#        69161
#        83309
#        96621
#        110619
#        130710
#        141790
#        157206
#        174602
#        188581
#
# Disc length: 2757 seconds
#
# Revision: 0
# Processed by: cddbd v1.5.2PL0 Copyright (c) Steve Scherf et al.
# Submitted via: ExactAudioCopy v0.99pb3
#
DISCID=bd0ac30f
DTITLE=varios - voces de francia
DYEAR=1900
DGENRE=frances
TTITLE0=que c안st triste venice
TTITLE1=mes mains sur tes anches
TTITLE2=rosa
TTITLE3=doujours aimer
TTITLE4=et pourtant
TTITLE5=t아imer follement
TTITLE6=ella
TTITLE7=c乶t l아mour
TTITLE8=il faut savoir
TTITLE9=la chanson de vieux amants
TTITLE10=valentine
TTITLE11=hymne a l아mour
TTITLE12=ne me quitte pas
TTITLE13=la vie en rose
TTITLE14=la boheme
EXTD=
EXTT0=
EXTT1=
EXTT2=
EXTT3=
EXTT4=
EXTT5=
EXTT6=
EXTT7=
EXTT8=
EXTT9=
EXTT10=
EXTT11=
EXTT12=
EXTT13=
EXTT14=
PLAYORDER=
